<?xml version="1.0" encoding="utf-8"?>
<!-- Generator: Adobe Illustrator 16.0.0, SVG Export Plug-In . SVG Version: 6.00 Build 0)  -->
<!DOCTYPE svg PUBLIC "-//W3C//DTD SVG 1.0//EN" "http://www.w3.org/TR/2001/REC-SVG-20010904/DTD/svg10.dtd">
<svg version="1.0" id="Layer_1" xmlns="http://www.w3.org/2000/svg" xmlns:xlink="http://www.w3.org/1999/xlink" x="0px" y="0px"
	 width="32px" height="32px" viewBox="0 0 32 32" enable-background="new 0 0 32 32" xml:space="preserve">
<g>
	<circle fill="#FFFFFF" cx="7.5" cy="10.5" r="4.5"/>
	<path fill="#FFFFFF" d="M24.5,7C22.567,7,21,8.566,21,10.5s1.567,3.5,3.5,3.5s3.5-1.566,3.5-3.5S26.433,7,24.5,7L24.5,7z"/>
	<rect x="15.5" fill="#FFFFFF" width="1" height="32"/>
	<g>
		<path fill="#FFFFFF" d="M8.553,26.234H6.465L5.961,28H4.948l2.098-6.988h0.945L10.07,28H9.058L8.553,26.234z M6.687,25.461h1.65
			l-0.806-2.842H7.502L6.687,25.461z"/>
	</g>
	<g>
		<path fill="#FFFFFF" d="M22.455,28v-6.988h1.935c0.669,0,1.191,0.156,1.567,0.471c0.376,0.312,0.563,0.783,0.563,1.41
			c0,0.326-0.081,0.616-0.244,0.869c-0.164,0.253-0.391,0.438-0.682,0.557c0.406,0.067,0.719,0.26,0.938,0.578
			c0.22,0.318,0.329,0.693,0.329,1.126c0,0.644-0.185,1.134-0.555,1.472C25.938,27.831,25.428,28,24.778,28H22.455z M23.43,24.04
			h1.108c0.313-0.009,0.56-0.11,0.737-0.305c0.178-0.193,0.267-0.468,0.267-0.823c0-0.384-0.098-0.672-0.293-0.863
			c-0.195-0.192-0.481-0.289-0.859-0.289h-0.96V24.04z M23.43,24.74v2.521h1.349c0.352,0,0.624-0.106,0.816-0.319
			c0.191-0.213,0.287-0.518,0.287-0.914c0-0.385-0.093-0.691-0.28-0.922s-0.45-0.352-0.79-0.365h-0.053H23.43z"/>
	</g>
</g>
</svg>
