<?xml version="1.0" encoding="utf-8"?>
<!-- Generator: Adobe Illustrator 16.0.0, SVG Export Plug-In . SVG Version: 6.00 Build 0)  -->
<!DOCTYPE svg PUBLIC "-//W3C//DTD SVG 1.0//EN" "http://www.w3.org/TR/2001/REC-SVG-20010904/DTD/svg10.dtd">
<svg version="1.0" id="Layer_1" xmlns="http://www.w3.org/2000/svg" xmlns:xlink="http://www.w3.org/1999/xlink" x="0px" y="0px"
	 width="48px" height="48px" viewBox="0 0 48 48" enable-background="new 0 0 48 48" xml:space="preserve">
<g>
	<path fill="#FF4646" d="M17.816,9C17.402,7.837,16.304,7,15,7s-2.402,0.837-2.816,2H6v2h6.184c0.414,1.163,1.513,2,2.816,2
		s2.402-0.837,2.816-2H42V9H17.816z M15,11c-0.552,0-1-0.449-1-1s0.448-1,1-1s1,0.449,1,1S15.552,11,15,11z"/>
	<path fill="#FF4646" d="M33,21c-1.305,0-2.402,0.837-2.816,2H6v2h24.184c0.414,1.162,1.514,2,2.816,2s2.402-0.838,2.816-2H42v-2
		h-6.184C35.402,21.837,34.305,21,33,21z M33,25c-0.552,0-1-0.449-1-1s0.448-1,1-1s1,0.449,1,1S33.552,25,33,25z"/>
	<path fill="#FF4646" d="M19,35c-1.304,0-2.402,0.838-2.816,2H6v2h10.184c0.414,1.162,1.513,2,2.816,2s2.402-0.838,2.816-2H42v-2
		H21.816C21.402,35.838,20.304,35,19,35z M19,39c-0.552,0-1-0.449-1-1s0.448-1,1-1s1,0.449,1,1S19.552,39,19,39z"/>
</g>
</svg>
