<?xml version="1.0" encoding="utf-8"?>
<!-- Generator: Adobe Illustrator 16.0.0, SVG Export Plug-In . SVG Version: 6.00 Build 0)  -->
<!DOCTYPE svg PUBLIC "-//W3C//DTD SVG 1.0//EN" "http://www.w3.org/TR/2001/REC-SVG-20010904/DTD/svg10.dtd">
<svg version="1.0" id="Layer_1" xmlns="http://www.w3.org/2000/svg" xmlns:xlink="http://www.w3.org/1999/xlink" x="0px" y="0px"
	 width="48px" height="48px" viewBox="0 0 48 48" enable-background="new 0 0 48 48" xml:space="preserve">
<g>
	<polygon fill="#FF4646" points="36,47 12,47 13,41 35,41 	"/>
	<path fill="#FF4646" d="M24,14c4.411,0,8,3.589,8,8v14H16V22C16,17.589,19.589,14,24,14 M24,11c-6.075,0-11,4.925-11,11v17h22V22
		C35,15.925,30.075,11,24,11L24,11z"/>
	<g>
		<path fill="#FF4646" d="M24,9c-0.553,0-1-0.448-1-1V4c0-0.552,0.447-1,1-1s1,0.448,1,1v4C25,8.552,24.553,9,24,9z"/>
	</g>
	<g>
		<path fill="#FF4646" d="M10,23H6c-0.552,0-1-0.448-1-1s0.448-1,1-1h4c0.552,0,1,0.448,1,1S10.552,23,10,23z"/>
	</g>
	<g>
		<path fill="#FF4646" d="M24,9c-0.553,0-1-0.448-1-1V4c0-0.552,0.447-1,1-1s1,0.448,1,1v4C25,8.552,24.553,9,24,9z"/>
	</g>
	<g>
		<path fill="#FF4646" d="M14.101,13.101c-0.256,0-0.512-0.098-0.707-0.293l-2.828-2.828c-0.391-0.391-0.391-1.023,0-1.414
			s1.023-0.391,1.414,0l2.828,2.828c0.391,0.391,0.391,1.023,0,1.414C14.613,13.003,14.357,13.101,14.101,13.101z"/>
	</g>
	<g>
		<path fill="#FF4646" d="M14.101,13.101c-0.256,0-0.512-0.098-0.707-0.293l-2.828-2.828c-0.391-0.391-0.391-1.023,0-1.414
			s1.023-0.391,1.414,0l2.828,2.828c0.391,0.391,0.391,1.023,0,1.414C14.613,13.003,14.357,13.101,14.101,13.101z"/>
	</g>
	<g>
		<path fill="#FF4646" d="M33.898,13.101c-0.256,0-0.512-0.098-0.707-0.293c-0.391-0.391-0.391-1.023,0-1.414l2.828-2.828
			c0.391-0.391,1.023-0.391,1.414,0s0.391,1.023,0,1.414l-2.828,2.828C34.41,13.003,34.154,13.101,33.898,13.101z"/>
	</g>
	<g>
		<path fill="#FF4646" d="M33.898,13.101c-0.256,0-0.512-0.098-0.707-0.293c-0.391-0.391-0.391-1.023,0-1.414l2.828-2.828
			c0.391-0.391,1.023-0.391,1.414,0s0.391,1.023,0,1.414l-2.828,2.828C34.41,13.003,34.154,13.101,33.898,13.101z"/>
	</g>
	<g>
		<path fill="#FF4646" d="M42,23h-4c-0.553,0-1-0.448-1-1s0.447-1,1-1h4c0.553,0,1,0.448,1,1S42.553,23,42,23z"/>
	</g>
	<path fill="#FF4646" d="M26,33h-4v-4h4V33z M26,27h-4l-1-8h6L26,27z"/>
</g>
</svg>
