<?xml version="1.0" encoding="utf-8"?>
<!-- Generator: Adobe Illustrator 16.0.0, SVG Export Plug-In . SVG Version: 6.00 Build 0)  -->
<!DOCTYPE svg PUBLIC "-//W3C//DTD SVG 1.0//EN" "http://www.w3.org/TR/2001/REC-SVG-20010904/DTD/svg10.dtd">
<svg version="1.0" id="Layer_1" xmlns="http://www.w3.org/2000/svg" xmlns:xlink="http://www.w3.org/1999/xlink" x="0px" y="0px"
	 width="48px" height="48px" viewBox="0 0 48 48" enable-background="new 0 0 48 48" xml:space="preserve">
<path fill="#808080" d="M29.6,10H27V9.4C27,8.627,26.473,8,25.7,8H22c-0.773,0-1.3,0.627-1.3,1.4V10h-2.3
	c-0.774,0-1.4,2.827-1.4,3.6c0,0.774,0.626,1.4,1.4,1.4H29.6c0.773,0,1.4-0.626,1.4-1.4C31,12.827,30.373,10,29.6,10z M24,11
	c-0.553,0-1-0.448-1-1s0.447-1,1-1s1,0.448,1,1S24.553,11,24,11z"/>
<rect x="15" y="19" fill="#808080" width="8" height="2"/>
<rect x="15" y="24" fill="#808080" width="8" height="2"/>
<rect x="15" y="29" fill="#808080" width="8" height="2"/>
<rect x="15" y="34" fill="#808080" width="8" height="2"/>
<rect x="15" y="39" fill="#808080" width="8" height="2"/>
<rect x="25" y="19" fill="#808080" width="8" height="2"/>
<rect x="25" y="24" fill="#808080" width="8" height="2"/>
<rect x="25" y="29" fill="#808080" width="8" height="2"/>
<rect x="25" y="34" fill="#808080" width="8" height="2"/>
<rect x="25" y="39" fill="#808080" width="8" height="2"/>
<path fill="#808080" d="M35,11h-3.517c0.247,0.728,0.382,1.489,0.451,2H35v32H13V13h3.065c0.069-0.511,0.204-1.272,0.451-2H13
	c-1.104,0-2,0.896-2,2v32c0,1.104,0.896,2,2,2h22c1.105,0,2-0.896,2-2V13C37,11.896,36.105,11,35,11z"/>
</svg>
