<?xml version="1.0" encoding="utf-8"?>
<!-- Generator: Adobe Illustrator 16.0.0, SVG Export Plug-In . SVG Version: 6.00 Build 0)  -->
<!DOCTYPE svg PUBLIC "-//W3C//DTD SVG 1.0//EN" "http://www.w3.org/TR/2001/REC-SVG-20010904/DTD/svg10.dtd">
<svg version="1.0" id="Layer_1" xmlns="http://www.w3.org/2000/svg" xmlns:xlink="http://www.w3.org/1999/xlink" x="0px" y="0px"
	 width="48px" height="48px" viewBox="0 0 48 48" enable-background="new 0 0 48 48" xml:space="preserve">
<g>
	<path fill="#FF4646" d="M35.23,9.027c-0.454-0.109-0.916,0.111-1.124,0.523C34.068,9.626,30.27,17,23,17H8c-2.209,0-4,1.791-4,4v6
		c0,2.209,1.791,4,4,4l8,14l5-3l-4.736-8.288C17.287,33.233,18,32.203,18,31h0h5c7.27,0,11.068,7.374,11.106,7.449
		C34.279,38.791,34.629,39,35,39c0.076,0,0.154-0.01,0.23-0.027C35.682,38.865,36,38.463,36,38V10
		C36,9.537,35.682,9.135,35.23,9.027z M34,34.713C31.981,32.221,28.339,29,23,29h-5V19h5c5.339,0,8.981-3.221,11-5.713V34.713z"/>
	<path fill="#FF4646" d="M39.012,18.212l-1.378,1.447C38.781,20.753,39.5,22.291,39.5,24c0,1.658-0.672,3.158-1.758,4.242
		l1.414,1.416C40.604,28.21,41.499,26.21,41.5,24C41.5,21.723,40.543,19.67,39.012,18.212z"/>
	<path fill="#FF4646" d="M42.113,14.957l-1.379,1.447c2.008,1.912,3.266,4.605,3.265,7.597c0.001,2.899-1.175,5.523-3.074,7.425
		l1.414,1.414C44.601,30.577,46,27.451,46,24C46,20.439,44.503,17.234,42.113,14.957z"/>
</g>
</svg>
