<?xml version="1.0" encoding="utf-8"?>
<!-- Generator: Adobe Illustrator 16.0.0, SVG Export Plug-In . SVG Version: 6.00 Build 0)  -->
<!DOCTYPE svg PUBLIC "-//W3C//DTD SVG 1.0//EN" "http://www.w3.org/TR/2001/REC-SVG-20010904/DTD/svg10.dtd">
<svg version="1.0" id="Layer_1" xmlns="http://www.w3.org/2000/svg" xmlns:xlink="http://www.w3.org/1999/xlink" x="0px" y="0px"
	 width="96px" height="96px" viewBox="0 0 96 96" enable-background="new 0 0 96 96" xml:space="preserve">
<g>
	<g>
		<path fill="#EEEEEE" d="M23.65,66.184c-0.196-0.295-0.483-0.512-0.862-0.651c-0.38-0.142-0.747-0.212-1.102-0.212
			c-0.208,0-0.428,0.025-0.66,0.074s-0.45,0.125-0.651,0.229c-0.202,0.104-0.376,0.242-0.523,0.413
			c-0.146,0.171-0.238,0.379-0.275,0.624c-0.036,0.293,0.016,0.535,0.156,0.725c0.14,0.19,0.343,0.35,0.605,0.477
			c0.263,0.13,0.569,0.242,0.918,0.341c0.349,0.098,0.7,0.208,1.055,0.33c0.354,0.122,0.7,0.27,1.037,0.44
			c0.336,0.172,0.627,0.389,0.871,0.65c0.245,0.264,0.425,0.594,0.542,0.99c0.116,0.397,0.131,0.879,0.046,1.441
			c-0.099,0.721-0.321,1.352-0.67,1.889c-0.349,0.539-0.777,0.986-1.285,1.341c-0.508,0.354-1.076,0.618-1.706,0.789
			s-1.281,0.257-1.954,0.257c-0.845,0-1.609-0.128-2.294-0.385c-0.686-0.258-1.303-0.674-1.854-1.248l2.367-2.239
			c0.245,0.394,0.572,0.694,0.981,0.909c0.41,0.214,0.854,0.32,1.331,0.32c0.231,0,0.471-0.027,0.716-0.082
			c0.244-0.057,0.471-0.139,0.679-0.248c0.208-0.11,0.382-0.25,0.522-0.422c0.141-0.172,0.229-0.373,0.267-0.605
			c0.061-0.393-0.046-0.7-0.321-0.928c-0.275-0.227-0.627-0.418-1.056-0.577c-0.428-0.159-0.893-0.317-1.395-0.478
			c-0.501-0.158-0.96-0.373-1.376-0.643s-0.743-0.624-0.981-1.064c-0.238-0.439-0.31-1.021-0.211-1.742
			c0.098-0.697,0.321-1.31,0.67-1.836c0.349-0.525,0.779-0.967,1.293-1.32c0.514-0.354,1.083-0.621,1.707-0.799
			s1.254-0.267,1.89-0.267c0.734,0,1.429,0.104,2.083,0.312c0.654,0.209,1.22,0.558,1.697,1.047L23.65,66.184z"/>
		<path fill="#EEEEEE" d="M32.475,63.008h2.367L38.677,76h-3.229l-0.733-2.753h-5.047L28.2,76h-3.156L32.475,63.008z M33.044,66.788
			l-2.147,4.037h3.175L33.044,66.788z"/>
		<path fill="#EEEEEE" d="M41.797,63.008h3.891l4.257,9.028h0.037l1.266-9.028h2.863L52.293,76h-3.742l-4.386-9.248h-0.036
			L42.843,76h-2.862L41.797,63.008z"/>
		<path fill="#EEEEEE" d="M56.717,63.008h2.861L57.762,76h-2.863L56.717,63.008z"/>
		<path fill="#EEEEEE" d="M64.35,65.54h-3.707l0.351-2.532h10.274l-0.35,2.532h-3.705L65.744,76h-2.863L64.35,65.54z"/>
		<path fill="#EEEEEE" d="M74.863,70.458l-3.836-7.45h3.561l2.074,4.863l3.596-4.863h3.395l-5.926,7.45L76.955,76h-2.863
			L74.863,70.458z"/>
	</g>
	<g>
		<path fill="#FF4646" d="M48,19c-6.922,0-12.533,5.611-12.533,12.534C35.467,38.454,48,55,48,55s12.533-16.546,12.533-23.466
			C60.533,24.611,54.918,19,48,19z M48,41.854c-5.767,0-10.441-4.675-10.441-10.442c0-5.766,4.675-10.443,10.441-10.443
			c5.766,0,10.441,4.677,10.441,10.443C58.441,37.179,53.768,41.854,48,41.854z"/>
		<polygon fill="#FF4646" points="55.154,28.443 50.834,28.443 50.834,24.123 45.166,24.123 45.166,28.443 40.846,28.443 
			40.846,34.112 45.166,34.112 45.166,38.432 50.834,38.432 50.834,34.112 55.154,34.112 		"/>
	</g>
</g>
</svg>
