<?xml version="1.0" encoding="utf-8"?>
<!-- Generator: Adobe Illustrator 16.0.0, SVG Export Plug-In . SVG Version: 6.00 Build 0)  -->
<!DOCTYPE svg PUBLIC "-//W3C//DTD SVG 1.1//EN" "http://www.w3.org/Graphics/SVG/1.1/DTD/svg11.dtd">
<svg version="1.1" id="Layer_1" xmlns="http://www.w3.org/2000/svg" xmlns:xlink="http://www.w3.org/1999/xlink" x="0px" y="0px"
	 width="32px" height="16px" viewBox="0 0 32 16" enable-background="new 0 0 32 16" xml:space="preserve">
<path fill="#808080" d="M24,2c-3.313,0-6,2.687-6,6s2.687,6,6,6s6-2.687,6-6S27.313,2,24,2z M23,11V5l3,3L23,11z"/>
<rect display="none" fill="#443344" width="16" height="16"/>
<path fill="#808080" d="M8,14c3.313,0,6-2.687,6-6s-2.687-6-6-6S2,4.687,2,8S4.687,14,8,14z M9,5v6L6,8L9,5z"/>
</svg>
