<?xml version="1.0" encoding="utf-8"?>
<!-- Generator: Adobe Illustrator 16.0.0, SVG Export Plug-In . SVG Version: 6.00 Build 0)  -->
<!DOCTYPE svg PUBLIC "-//W3C//DTD SVG 1.0//EN" "http://www.w3.org/TR/2001/REC-SVG-20010904/DTD/svg10.dtd">
<svg version="1.0" id="Layer_1" xmlns="http://www.w3.org/2000/svg" xmlns:xlink="http://www.w3.org/1999/xlink" x="0px" y="0px"
	 width="48px" height="48px" viewBox="0 0 48 48" enable-background="new 0 0 48 48" xml:space="preserve">
<circle fill="#FFFFFF" cx="24" cy="27" r="14.5"/>
<g>
	<path fill="#E60000" d="M24.204,22c1.125,0,2.152,0.387,2.988,1.018L29,20.607C27.661,19.604,26.005,19,24.204,19
		c-3.356,0-6.344,2.069-7.588,5h-2.617v2h2.073c-0.044,0.328-0.073,0.66-0.073,1s0.029,0.672,0.073,1h-2.073v2h2.617
		c1.244,2.931,4.231,5,7.588,5c1.801,0,3.457-0.604,4.794-1.607l-1.806-2.407C26.356,31.613,25.328,32,24.204,32
		c-1.631,0-3.148-0.788-4.12-2h4.915v-2h-5.891c-0.071-0.323-0.109-0.658-0.109-1s0.038-0.677,0.109-1h5.891v-2h-4.915
		C21.056,22.789,22.573,22,24.204,22z"/>
	<polygon fill="#E60000" points="47,8 45,6 34,17 29,12 26.999,14 34,21 	"/>
	<path fill="#E60000" d="M37.109,22.133C37.676,23.65,38,25.286,38,27c0,7.72-6.279,14-14,14c-7.72,0-14-6.28-14-14
		c0-7.633,6.143-13.848,13.743-13.987l0.977-0.977C24.479,12.025,24.243,12,24,12c-8.284,0-15,6.716-15,15s6.716,15,15,15
		c8.285,0,15-6.716,15-15c0-2-0.398-3.904-1.109-5.648L37.109,22.133z"/>
</g>
</svg>
