<?xml version="1.0" encoding="utf-8"?>
<!-- Generator: Adobe Illustrator 16.0.0, SVG Export Plug-In . SVG Version: 6.00 Build 0)  -->
<!DOCTYPE svg PUBLIC "-//W3C//DTD SVG 1.0//EN" "http://www.w3.org/TR/2001/REC-SVG-20010904/DTD/svg10.dtd">
<svg version="1.0" id="Layer_1" xmlns="http://www.w3.org/2000/svg" xmlns:xlink="http://www.w3.org/1999/xlink" x="0px" y="0px"
	 width="48px" height="48px" viewBox="0 0 48 48" enable-background="new 0 0 48 48" xml:space="preserve">
<rect x="14" y="13" fill="#FFFFFF" width="20" height="27"/>
<g>
	<path fill="#E60000" d="M33,10H15c-1.104,0-2,0.896-2,2v33c0,1.104,0.896,2,2,2h18c1.104,0,2-0.896,2-2V12
		C35,10.896,34.104,10,33,10z M24,45c-1.104,0-2-0.896-2-2s0.896-2,2-2c1.104,0,2,0.896,2,2S25.104,45,24,45z M33,39H15V14h18V39z"
		/>
	<path fill="#E60000" d="M23.199,28h1.602c0.981,0,1.282-0.645,1.645-1.666l0.889-4C27.333,20.37,25.964,19,24,19
		s-3.333,1.37-3.333,3.333l0.889,4C21.917,27.355,22.218,28,23.199,28z"/>
	<path fill="#E60000" d="M26,29c-0.302,0.721-1.169,2-2,2s-1.698-1.279-2-2c-4,0-4.777,3-5,5h14C30.777,32,30,29,26,29z"/>
</g>
</svg>
