<?xml version="1.0" encoding="utf-8"?>
<!-- Generator: Adobe Illustrator 16.0.0, SVG Export Plug-In . SVG Version: 6.00 Build 0)  -->
<!DOCTYPE svg PUBLIC "-//W3C//DTD SVG 1.0//EN" "http://www.w3.org/TR/2001/REC-SVG-20010904/DTD/svg10.dtd">
<svg version="1.0" id="Layer_1" xmlns="http://www.w3.org/2000/svg" xmlns:xlink="http://www.w3.org/1999/xlink" x="0px" y="0px"
	 width="48px" height="48px" viewBox="0 0 48 48" enable-background="new 0 0 48 48" xml:space="preserve">
<path fill="#1A171B" d="M24.846,13v0.339c0,1.965,1.614,3.563,3.599,3.563c0.951,0,1.846-0.371,2.52-1.044l0.239-0.239l1.206,1.209
	l-0.23,0.23c-0.68,0.675-1.055,1.572-1.055,2.529c0,1.999,1.533,3.565,3.538,3.565H35v1.692h-0.338
	c-1.951,0-3.538,1.604-3.538,3.576c0,0.958,0.374,1.855,1.054,2.527l0.232,0.228l-1.207,1.21l-0.239-0.239
	c-0.673-0.672-1.568-1.042-2.52-1.042c-1.984,0-3.599,1.601-3.599,3.567V35h-1.692v-0.327c0-1.967-1.588-3.567-3.54-3.567
	c-0.952,0-1.848,0.37-2.523,1.045l-0.232,0.234l-1.206-1.205l0.235-0.233c0.675-0.673,1.046-1.569,1.046-2.524
	c0-1.972-1.612-3.576-3.595-3.576H13v-1.688l0.338,0.001c1.982,0,3.595-1.602,3.595-3.57c0-0.951-0.37-1.848-1.048-2.529
	l-0.233-0.232l1.206-1.204l0.234,0.234c0.675,0.675,1.57,1.046,2.521,1.046c1.952,0,3.54-1.599,3.54-3.563V13H24.846 M24.028,28.75
	c2.619,0,4.75-2.131,4.75-4.75s-2.131-4.75-4.75-4.75s-4.75,2.131-4.75,4.75S21.409,28.75,24.028,28.75 M25.846,12h-3.692v1.339
	c0,1.413-1.123,2.563-2.54,2.563c-0.708,0-1.351-0.289-1.814-0.753v-0.003l-0.939-0.94l-2.626,2.623l0.947,0.939
	c0.464,0.467,0.752,1.11,0.752,1.819c0,1.414-1.172,2.57-2.595,2.57L12,22.153v3.692h1.338c1.423,0,2.595,1.163,2.595,2.576
	c0,0.711-0.288,1.354-0.752,1.816l-0.947,0.938l2.626,2.625l0.939-0.945c0.464-0.463,1.106-0.75,1.814-0.75
	c1.417,0,2.54,1.148,2.54,2.567V36h3.692v-1.327c0-1.419,1.188-2.567,2.599-2.567c0.708,0,1.35,0.287,1.813,0.75l0.947,0.945
	l2.618-2.625l-0.94-0.941l-0.002,0.003c-0.47-0.464-0.757-1.106-0.757-1.815c0-1.413,1.129-2.576,2.538-2.576H36v-3.692h-1.338
	h-0.047c-1.408,0-2.491-1.151-2.491-2.565c0-0.709,0.288-1.353,0.759-1.819l0.94-0.939l-2.618-2.623l-0.947,0.943
	c-0.464,0.464-1.105,0.753-1.813,0.753c-1.411,0-2.599-1.15-2.599-2.563V12L25.846,12z M24.028,27.75c-2.071,0-3.75-1.68-3.75-3.75
	s1.679-3.75,3.75-3.75s3.75,1.68,3.75,3.75S26.1,27.75,24.028,27.75L24.028,27.75z"/>
</svg>
