<?xml version="1.0" encoding="utf-8"?>
<!-- Generator: Adobe Illustrator 16.0.0, SVG Export Plug-In . SVG Version: 6.00 Build 0)  -->
<!DOCTYPE svg PUBLIC "-//W3C//DTD SVG 1.0//EN" "http://www.w3.org/TR/2001/REC-SVG-20010904/DTD/svg10.dtd">
<svg version="1.0" id="Layer_1" xmlns="http://www.w3.org/2000/svg" xmlns:xlink="http://www.w3.org/1999/xlink" x="0px" y="0px"
	 width="48px" height="48px" viewBox="0 0 48 48" enable-background="new 0 0 48 48" xml:space="preserve">
<g>
	<g>
		<path fill="#808080" d="M32,4c-6.627,0-12,5.373-12,12s5.373,12,12,12s12-5.373,12-12S38.627,4,32,4z M38.363,13.238
			c0.006,0.141,0.01,0.281,0.01,0.423c0,4.337-3.303,9.339-9.34,9.339c-1.855,0-3.58-0.543-5.033-1.475
			c0.258,0.029,0.52,0.045,0.783,0.045c1.539,0,2.953-0.523,4.076-1.404c-1.436-0.027-2.648-0.977-3.064-2.279
			c0.199,0.037,0.404,0.06,0.617,0.06c0.299,0,0.59-0.042,0.863-0.114c-1.5-0.303-2.633-1.63-2.633-3.219c0-0.015,0-0.028,0-0.041
			c0.443,0.246,0.949,0.392,1.488,0.41c-0.883-0.589-1.461-1.595-1.461-2.733c0-0.601,0.162-1.165,0.445-1.65
			c1.617,1.986,4.037,3.293,6.766,3.429c-0.057-0.24-0.086-0.49-0.086-0.748c0-1.812,1.469-3.28,3.283-3.28
			c0.943,0,1.797,0.398,2.396,1.036c0.746-0.146,1.449-0.42,2.084-0.798c-0.246,0.768-0.766,1.411-1.443,1.816
			c0.664-0.078,1.297-0.256,1.885-0.516C39.561,12.197,39.004,12.775,38.363,13.238z"/>
	</g>
	<path fill="#808080" d="M34,36c1.103,0,2,0.896,2,2s-0.897,2-2,2s-2-0.896-2-2S32.897,36,34,36 M34,32c-3.314,0-6,2.687-6,6
		s2.686,6,6,6s6-2.687,6-6S37.314,32,34,32L34,32z"/>
	<path fill="#808080" d="M12,8c1.103,0,2,0.897,2,2s-0.897,2-2,2s-2-0.897-2-2S10.897,8,12,8 M12,4c-3.314,0-6,2.687-6,6
		s2.686,6,6,6s6-2.687,6-6S15.314,4,12,4L12,4z"/>
	<path fill="#808080" d="M15,28c3.859,0,7,3.141,7,7s-3.141,7-7,7s-7-3.141-7-7S11.141,28,15,28 M15,26c-4.971,0-9,4.029-9,9
		s4.029,9,9,9s9-4.029,9-9S19.971,26,15,26L15,26z"/>
	<circle fill="#808080" cx="7" cy="21" r="3"/>
</g>
</svg>
