<?xml version="1.0" encoding="utf-8"?>
<!-- Generator: Adobe Illustrator 16.0.0, SVG Export Plug-In . SVG Version: 6.00 Build 0)  -->
<!DOCTYPE svg PUBLIC "-//W3C//DTD SVG 1.0//EN" "http://www.w3.org/TR/2001/REC-SVG-20010904/DTD/svg10.dtd">
<svg version="1.0" id="Layer_1" xmlns="http://www.w3.org/2000/svg" xmlns:xlink="http://www.w3.org/1999/xlink" x="0px" y="0px"
	 width="48px" height="48px" viewBox="0 0 48 48" enable-background="new 0 0 48 48" xml:space="preserve">
<path fill="#FFFFFF" d="M34,18c2.209,0,4-1.791,4-4s-1.791-4-4-4s-4,1.791-4,4c0,0.606,0.145,1.174,0.386,1.688
	c-0.548,0.454-1.222,0.714-1.941,0.714c-1.709,0-3.099-1.375-3.099-3.063V12.5h-2.692v0.839c0,1.689-1.364,3.063-3.04,3.063
	c-0.818,0-1.588-0.319-2.168-0.899l-0.587-0.59l-1.916,1.915l0.59,0.586c0.581,0.585,0.9,1.356,0.9,2.174
	c0,1.693-1.388,3.07-3.095,3.07L12.5,22.655v2.69h0.838c1.707,0,3.095,1.38,3.095,3.076c0,0.821-0.319,1.592-0.899,2.17
	l-0.591,0.586l1.916,1.915l0.586-0.59c0.581-0.579,1.35-0.897,2.169-0.897c1.676,0,3.04,1.376,3.04,3.067V35.5h2.692v-0.827
	c0-1.691,1.39-3.067,3.099-3.067c0.818,0,1.588,0.318,2.167,0.896l0.593,0.592l1.913-1.918l-0.588-0.583
	c-0.584-0.576-0.905-1.348-0.905-2.171c0-1.696,1.363-3.076,3.038-3.076H35.5v-2.692h-0.838c-1.725,0-3.038-1.347-3.038-3.065
	c0-0.726,0.264-1.404,0.724-1.954C32.853,17.864,33.409,18,34,18z M24.028,28.25c-2.343,0-4.25-1.906-4.25-4.25
	c0-2.343,1.907-4.25,4.25-4.25c2.344,0,4.25,1.907,4.25,4.25C28.278,26.344,26.372,28.25,24.028,28.25z"/>
<g>
	<path fill="#1A171B" d="M980.662,757.153h-0.047c-1.408,0-2.491-1.151-2.491-2.565c0-0.709,0.288-1.353,0.759-1.819l0.94-0.939
		l-2.618-2.623l-0.947,0.943c-0.464,0.464-1.105,0.753-1.813,0.753c-1.411,0-2.599-1.15-2.599-2.563V747h-3.692v1.339
		c0,1.413-1.123,2.563-2.54,2.563c-0.708,0-1.351-0.289-1.814-0.753v-0.003l-0.939-0.94l-2.626,2.623l0.947,0.939
		c0.464,0.467,0.752,1.11,0.752,1.819c0,1.414-1.172,2.57-2.595,2.57L958,757.153v3.692h1.338c1.423,0,2.595,1.163,2.595,2.576
		c0,0.711-0.288,1.354-0.752,1.816l-0.947,0.938l2.626,2.625l0.939-0.945c0.464-0.463,1.106-0.75,1.814-0.75
		c1.417,0,2.54,1.148,2.54,2.567V771h3.692v-1.327c0-1.419,1.188-2.567,2.599-2.567c0.708,0,1.35,0.287,1.813,0.75l0.947,0.945
		l2.618-2.625l-0.94-0.941l-0.002,0.003c-0.47-0.464-0.757-1.106-0.757-1.815c0-1.413,1.129-2.576,2.538-2.576H982v-3.692H980.662z
		 M970.028,762.75c-2.071,0-3.75-1.68-3.75-3.75s1.679-3.75,3.75-3.75s3.75,1.68,3.75,3.75S972.1,762.75,970.028,762.75z"/>
</g>
<g>
	<path fill="#3399CC" d="M34,19c2.762,0,5-2.239,5-5s-2.238-5-5-5s-5,2.239-5,5c0,0.613,0.126,1.193,0.327,1.736
		c-0.275,0.104-0.571,0.167-0.883,0.167c-1.411,0-2.599-1.15-2.599-2.563V12h-3.692v1.339c0,1.413-1.123,2.563-2.54,2.563
		c-0.708,0-1.351-0.289-1.814-0.753v-0.003l-0.939-0.94l-2.626,2.623l0.947,0.939c0.464,0.467,0.752,1.11,0.752,1.819
		c0,1.414-1.172,2.57-2.595,2.57L12,22.153v3.692h1.338c1.423,0,2.595,1.163,2.595,2.576c0,0.711-0.288,1.354-0.752,1.816
		l-0.947,0.938l2.626,2.625l0.939-0.945c0.464-0.463,1.106-0.75,1.814-0.75c1.417,0,2.54,1.148,2.54,2.567V36h3.692v-1.327
		c0-1.419,1.188-2.567,2.599-2.567c0.708,0,1.35,0.287,1.813,0.75l0.947,0.945l2.618-2.625l-0.94-0.941l-0.002,0.003
		c-0.47-0.464-0.757-1.106-0.757-1.815c0-1.413,1.129-2.576,2.538-2.576H36v-3.692h-1.338h-0.047c-1.408,0-2.491-1.151-2.491-2.565
		c0-0.32,0.064-0.623,0.173-0.905C32.831,18.877,33.399,19,34,19z M33,11h2v4h-2V11z M33,16h2v1h-2V16z M34.662,23.153H35v1.692
		h-0.338c-1.951,0-3.538,1.604-3.538,3.576c0,0.958,0.374,1.855,1.054,2.527l0.232,0.228l-1.207,1.21l-0.239-0.239
		c-0.673-0.672-1.568-1.042-2.52-1.042c-1.984,0-3.599,1.601-3.599,3.567V35h-1.692v-0.327c0-1.967-1.588-3.567-3.54-3.567
		c-0.952,0-1.848,0.37-2.523,1.045l-0.232,0.234l-1.206-1.205l0.235-0.233c0.675-0.673,1.046-1.569,1.046-2.524
		c0-1.972-1.612-3.576-3.595-3.576H13v-1.688l0.338,0.001c1.982,0,3.595-1.602,3.595-3.57c0-0.951-0.37-1.848-1.048-2.529
		l-0.233-0.232l1.206-1.204l0.234,0.234c0.675,0.675,1.57,1.046,2.521,1.046c1.952,0,3.54-1.599,3.54-3.563V13h1.692v0.339
		c0,1.965,1.614,3.563,3.599,3.563c0.463,0,0.905-0.102,1.319-0.273c0.413,0.664,0.973,1.217,1.64,1.625
		c-0.175,0.418-0.279,0.865-0.279,1.333C31.124,21.587,32.657,23.153,34.662,23.153z"/>
	<path fill="#3399CC" d="M24.028,19.25c-2.619,0-4.75,2.131-4.75,4.75s2.131,4.75,4.75,4.75s4.75-2.131,4.75-4.75
		S26.647,19.25,24.028,19.25z M24.028,27.75c-2.071,0-3.75-1.68-3.75-3.75s1.679-3.75,3.75-3.75s3.75,1.68,3.75,3.75
		S26.1,27.75,24.028,27.75z"/>
</g>
</svg>
