<?xml version="1.0" encoding="utf-8"?>
<!-- Generator: Adobe Illustrator 16.0.0, SVG Export Plug-In . SVG Version: 6.00 Build 0)  -->
<!DOCTYPE svg PUBLIC "-//W3C//DTD SVG 1.0//EN" "http://www.w3.org/TR/2001/REC-SVG-20010904/DTD/svg10.dtd">
<svg version="1.0" id="Layer_1" xmlns="http://www.w3.org/2000/svg" xmlns:xlink="http://www.w3.org/1999/xlink" x="0px" y="0px"
	 width="48px" height="48px" viewBox="0 0 48 48" enable-background="new 0 0 48 48" xml:space="preserve">
<g>
	<g>
		<path fill="#808080" d="M33,10H15c-1.104,0-2,0.896-2,2v33c0,1.104,0.896,2,2,2h18c1.105,0,2-0.896,2-2V12
			C35,10.896,34.105,10,33,10z M24,45c-1.104,0-2-0.896-2-2s0.896-2,2-2c1.105,0,2,0.896,2,2S25.105,45,24,45z M33,39H15V14h18V39z"
			/>
		<path fill="#808080" d="M36.25,6.103c-1.973-1.139-4.229-1.336-6.256-0.739l0.564,1.917c1.52-0.447,3.211-0.3,4.691,0.555
			c1.436,0.828,2.398,2.16,2.795,3.644l1.934-0.518C39.447,8.983,38.164,7.208,36.25,6.103z"/>
		<path fill="#808080" d="M38.5,2.206c-3.084-1.781-6.607-2.087-9.775-1.156l0.564,1.918c2.66-0.782,5.621-0.525,8.211,0.971
			c2.512,1.449,4.197,3.779,4.893,6.375l1.932-0.518C43.496,6.706,41.488,3.932,38.5,2.206z"/>
	</g>
	<path fill="#808080" d="M24.603,29c-0.813,0-1.565-0.396-2.052-1H25v-1h-2.945C22.02,26.838,22,26.672,22,26.5
		s0.02-0.338,0.055-0.5H25v-1h-2.449c0.486-0.604,1.238-1,2.052-1c0.562,0,1.076,0.193,1.495,0.508L27,23.304
		c-0.668-0.503-1.496-0.804-2.397-0.804c-1.678,0-3.168,1.035-3.791,2.5H19.5v1h1.053c-0.021,0.166-0.053,0.328-0.053,0.5
		s0.031,0.334,0.053,0.5H19.5v1h1.312c0.623,1.465,2.113,2.5,3.791,2.5c0.9,0,1.729-0.301,2.397-0.803l-0.904-1.205
		C25.678,28.807,25.164,29,24.603,29z"/>
</g>
</svg>
