<?xml version="1.0" encoding="utf-8"?>
<!-- Generator: Adobe Illustrator 16.0.0, SVG Export Plug-In . SVG Version: 6.00 Build 0)  -->
<!DOCTYPE svg PUBLIC "-//W3C//DTD SVG 1.0//EN" "http://www.w3.org/TR/2001/REC-SVG-20010904/DTD/svg10.dtd">
<svg version="1.0" id="Layer_1" xmlns="http://www.w3.org/2000/svg" xmlns:xlink="http://www.w3.org/1999/xlink" x="0px" y="0px"
	 width="48px" height="48px" viewBox="0 0 48 48" enable-background="new 0 0 48 48" xml:space="preserve">
<path fill="#FFFFFF" d="M36,9c-2.209,0-4,1.791-4,4c0,0.171,0.029,0.334,0.051,0.5H13c-0.192,0-0.369,0.112-0.451,0.286
	c-0.083,0.174-0.058,0.382,0.064,0.532l8.861,11.479l1.996,12.966l1.167,1.168l1.885-14.13l7.298-9.454
	C34.447,16.757,35.194,17,36,17c2.209,0,4-1.791,4-4S38.209,9,36,9z"/>
<path fill="#3399CC" d="M36,8c-2.762,0-5,2.239-5,5H13c-0.387,0-0.738,0.223-0.903,0.572c-0.166,0.349-0.115,0.762,0.129,1.062
	L21,26l2.001,13L25,41l2-15l6.648-8.613C34.353,17.766,35.145,18,36,18c2.762,0,5-2.239,5-5S38.762,8,36,8z M26.208,25.389
	l-0.164,0.213l-0.035,0.267l-1.732,12.993l-0.337-0.337l-1.951-12.677l-0.039-0.255l-0.158-0.204L13,14h18.101
	c0.23,1.135,0.859,2.113,1.717,2.827L26.208,25.389z M37,16h-2v-1h2V16z M37,14h-2v-4h2V14z"/>
</svg>
