<?xml version="1.0" encoding="utf-8"?>
<!-- Generator: Adobe Illustrator 16.0.0, SVG Export Plug-In . SVG Version: 6.00 Build 0)  -->
<!DOCTYPE svg PUBLIC "-//W3C//DTD SVG 1.0//EN" "http://www.w3.org/TR/2001/REC-SVG-20010904/DTD/svg10.dtd">
<svg version="1.0" id="Layer_1" xmlns="http://www.w3.org/2000/svg" xmlns:xlink="http://www.w3.org/1999/xlink" x="0px" y="0px"
	 width="96px" height="96px" viewBox="0 0 96 96" enable-background="new 0 0 96 96" xml:space="preserve">
<g>
	<path fill="#FFFFFF" d="M31.297,56.887c-0.009-0.994-0.362-1.405-0.801-1.648c-0.446-0.24-1.016-0.263-1.411-0.298
		c-0.368-0.036-0.854-0.049-1.355-0.049c-1.007,0-2.08,0.049-2.502,0.049c-2.325,0.015-3.06,1.264-3.476,2.433
		c-0.401,1.161-1.246,5.218-1.367,6.473c-0.015,0.148-0.022,0.301-0.022,0.444c0,0.534,0.105,1.017,0.355,1.366
		c0.249,0.348,0.637,0.59,1.305,0.643c0.758,0.056,1.666,0.09,2.556,0.09c1.008,0,2-0.043,2.73-0.145
		c1.534-0.193,2.536-1.364,2.682-2.02l0.34-1.959h-2.793l-0.103,0.516c-0.114,0.637-0.696,1.172-1.572,1.232h-1.344
		c-0.373,0.002-0.688-0.166-0.889-0.411c-0.203-0.243-0.305-0.558-0.305-0.872c0-0.088,0.007-0.177,0.024-0.269l0.781-3.612
		c0.048-0.239,0.161-0.594,0.39-0.909c0.226-0.312,0.6-0.59,1.111-0.592h1.663c0.115,0.002,0.357-0.002,0.587,0.155
		c0.235,0.156,0.403,0.474,0.398,0.949c0,0.096-0.006,0.199-0.019,0.309h2.759l0.235-1.256
		C31.285,57.277,31.297,57.074,31.297,56.887L31.297,56.887z"/>
	<path fill="#FFFFFF" d="M62.352,55.225c-0.336-0.188-0.766-0.242-1.059-0.286c-0.377-0.06-1.324-0.095-2.312-0.093
		c-1.094-0.002-2.258,0.041-2.795,0.123c-1.863,0.279-2.475,1.605-2.641,2.447l-0.381,1.822c-0.031,0.172-0.045,0.336-0.045,0.496
		c0.021,0.854,0.357,1.482,1.562,1.645c1.58,0.176,2.75,0.23,3.514,0.286c0.682,0.043,0.969,0.549,0.955,0.889
		c0,0.03,0,0.052-0.002,0.078c-0.025,0.219-0.006,0.31-0.17,0.901l-0.01,0.028c-0.131,0.286-0.418,0.444-0.729,0.581
		c-0.316,0.129-0.664,0.209-0.951,0.209h-1.201c-0.418,0-0.711-0.071-0.92-0.23c-0.213-0.16-0.283-0.408-0.279-0.619
		c0.002-0.203,0.051-0.401,0.094-0.58h-2.646l-0.314,1.732c-0.008,0.05-0.01,0.099-0.01,0.148c0.008,0.646,0.443,1.341,1.514,1.466
		c0.537,0.062,1.729,0.084,2.795,0.084c0.797,0,1.531-0.013,1.879-0.028c2.123-0.115,3.182-0.965,3.553-2.193l0.496-2.25
		c0.039-0.186,0.059-0.357,0.059-0.517c-0.002-0.491-0.166-0.842-0.48-1.114c-0.318-0.271-0.809-0.459-1.459-0.538
		c-0.006,0-2.584-0.261-3.094-0.306c-0.199-0.02-0.467-0.053-0.709-0.148c-0.23-0.087-0.498-0.277-0.502-0.613
		c0-0.024,0-0.053,0.004-0.076c0.043-0.307,0.1-0.857,0.285-1.172c0.166-0.25,0.514-0.443,1.031-0.476
		c0.186-0.011,0.441-0.015,0.691-0.015c0.287,0,0.561,0.006,0.717,0.015c0.094,0.009,0.389-0.009,0.674,0.112
		c0.297,0.117,0.568,0.444,0.557,0.957c0,0.068-0.002,0.141-0.012,0.215h2.574l0.305-1.414c0.035-0.189,0.053-0.355,0.053-0.503
		C62.934,55.684,62.688,55.416,62.352,55.225L62.352,55.225z"/>
	<path fill="#FFFFFF" d="M33.534,55l-1.82,8.682c-0.047,0.188-0.069,0.365-0.069,0.531c0.003,1.057,0.874,1.773,2.277,1.787h5.327
		l0.444-2.236h-5.069c-0.065,0-0.127-0.03-0.168-0.08c-0.043-0.051-0.058-0.118-0.047-0.182l0.36-1.796
		c0.019-0.103,0.11-0.176,0.213-0.176h4.856l0.379-1.923h-4.722c-0.065,0-0.128-0.027-0.17-0.078
		c-0.041-0.053-0.058-0.117-0.044-0.184l0.354-1.749c0.019-0.103,0.11-0.175,0.213-0.175h5.212L41.59,55H33.534L33.534,55z"/>
	<path fill="#FFFFFF" d="M45.539,57.594c0.021-0.102,0.11-0.172,0.215-0.172h2.371c0.095,0.002,0.31,0.013,0.535,0.132
		c0.226,0.11,0.453,0.378,0.447,0.768c0,0.082-0.008,0.164-0.023,0.254l-0.004,0.011l-0.327,1.337
		c-0.062,0.349-0.278,0.579-0.499,0.692c-0.222,0.116-0.442,0.139-0.584,0.139h-2.542c-0.067,0-0.129-0.028-0.17-0.08
		c-0.043-0.051-0.058-0.117-0.045-0.184L45.539,57.594L45.539,57.594z M43.739,66l0.581-2.826C44.342,63.072,44.432,63,44.534,63
		h4.119c0.974,0,2.464-0.719,2.824-2.305l0.676-3.134c0.045-0.217,0.066-0.421,0.066-0.606c-0.002-1.279-0.951-1.941-1.852-1.955
		h-7.048L41,66H43.739L43.739,66z"/>
	<path fill="#FFFFFF" d="M67.084,60.756c-0.064,0-0.125-0.03-0.168-0.08c-0.041-0.049-0.059-0.116-0.047-0.18l0.551-2.897
		c0.018-0.104,0.109-0.177,0.215-0.177h2.6c0.172,0.015,0.424,0.005,0.67,0.121c0.258,0.113,0.449,0.414,0.438,0.83
		c0,0.116-0.012,0.243-0.033,0.385l-0.002,0.014l-0.4,1.812c-0.021,0.101-0.109,0.172-0.213,0.172H67.084L67.084,60.756z M72.605,66
		l1.852-8.404c0.043-0.232,0.064-0.439,0.064-0.63c-0.004-0.796-0.338-1.245-0.789-1.546c-0.447-0.295-1.025-0.406-1.445-0.42
		h-7.146l-2.359,11h2.799l0.637-2.828C66.24,63.072,66.326,63,66.43,63h3.654c0.064,0,0.127,0.029,0.168,0.08
		c0.043,0.051,0.059,0.115,0.049,0.182L69.777,66H72.605L72.605,66z"/>
</g>
<g>
	<path fill="#FFFFFF" d="M30.384,31.652c-0.663,0-0.822-0.525,0.191-1.277c1.909-1.409,3.71-2.877,4.039-3.123
		c0.403-0.299,0.877-0.518,1.474-0.518h5.657c0.38,0,0.821-0.157,1.156-0.416c1.546-1.191,5.89-4.542,5.987-4.626
		c0.514-0.42,1.116-0.225,0.979,0.423c-0.514,2.407-1.176,5.637-1.242,5.948c-0.37,1.749-3.02,3.589-5.36,3.589H30.384
		L30.384,31.652z"/>
	<path fill="#FFFFFF" d="M45.037,44.961c-0.211,1.003-0.864,1.652-1.338,2c-1.856,1.353-4.198,3.052-4.332,3.146
		c-0.362,0.274-0.954,0.194-0.817-0.461c0.087-0.397,1.475-7.521,2.169-10.783c0.087-0.427,0-0.778-0.782-0.778H28.633
		c-0.504,0-0.923-0.379-0.137-0.999c0.498-0.391,2.79-2.151,4.423-3.334c0.471-0.318,0.965-0.525,1.582-0.525h7.94
		c2.62,0,4.695,1.676,4.146,4.248C46.113,39.708,45.524,42.676,45.037,44.961L45.037,44.961z"/>
	<path fill="#FFFFFF" d="M66.906,33.184c0.664,0,0.857,0.532-0.193,1.277c-1.936,1.372-3.738,2.877-4.062,3.124
		c-0.402,0.298-0.881,0.515-1.475,0.515H55.52c-0.383,0-0.822,0.157-1.158,0.416c-1.547,1.192-5.888,4.542-5.989,4.628
		c-0.514,0.42-1.115,0.224-0.974-0.424c0.509-2.406,1.172-5.638,1.236-5.946c0.373-1.753,3.021-3.59,5.365-3.59H66.906
		L66.906,33.184z"/>
	<path fill="#FFFFFF" d="M52.219,19.875c0.219-1.003,0.867-1.655,1.346-2.001c1.854-1.354,4.197-3.053,4.328-3.15
		c0.367-0.269,0.959-0.192,0.818,0.463c-0.088,0.401-1.475,7.522-2.168,10.783c-0.09,0.427,0.002,0.782,0.783,0.782h11.412
		c0.504,0,0.922,0.381,0.135,0.998c-0.498,0.387-4.1,3.129-4.422,3.333c-0.467,0.321-0.961,0.523-1.576,0.523h-8.051
		c-2.619,0-4.699-1.674-4.148-4.246C51.148,25.128,51.736,22.162,52.219,19.875L52.219,19.875z"/>
</g>
<g>
	<path fill="#CCCCCC" d="M57.344,73.201c0,1.191-0.234,2.148-0.707,2.871c-0.47,0.723-1.129,1.084-1.977,1.084
		c-0.341,0-0.641-0.068-0.901-0.203c-0.262-0.137-0.489-0.334-0.681-0.596v3.719H51V69h1.908l0.089,0.82
		c0.196-0.311,0.431-0.549,0.703-0.717c0.27-0.169,0.586-0.252,0.944-0.252c0.859,0,1.522,0.385,1.992,1.152
		c0.473,0.771,0.707,1.783,0.707,3.041V73.201z M55.26,73.045c0-0.766-0.095-1.381-0.281-1.85c-0.188-0.469-0.479-0.703-0.873-0.703
		c-0.236,0-0.441,0.062-0.613,0.183c-0.173,0.121-0.311,0.288-0.414,0.507v3.771c0.104,0.188,0.241,0.331,0.414,0.43
		c0.172,0.097,0.381,0.146,0.622,0.146c0.403,0,0.696-0.205,0.875-0.616c0.18-0.411,0.271-0.983,0.271-1.711V73.045z"/>
	<path fill="#CCCCCC" d="M62.508,77c-0.078-0.176-0.143-0.369-0.195-0.576c-0.052-0.207-0.09-0.42-0.115-0.637
		c-0.176,0.399-0.41,0.729-0.698,0.984c-0.29,0.256-0.644,0.385-1.062,0.385c-0.729,0-1.289-0.214-1.682-0.639
		c-0.394-0.428-0.59-1.014-0.59-1.758c0-0.779,0.258-1.385,0.773-1.815c0.516-0.433,1.285-0.647,2.312-0.647h0.908v-0.666
		c0-0.398-0.073-0.706-0.222-0.92c-0.148-0.215-0.366-0.322-0.657-0.322c-0.257,0-0.453,0.086-0.584,0.26
		c-0.135,0.174-0.2,0.418-0.2,0.738l-2.013-0.006l-0.014-0.044c-0.029-0.69,0.229-1.278,0.775-1.762
		c0.548-0.483,1.27-0.724,2.168-0.724c0.843,0,1.525,0.24,2.048,0.724s0.784,1.175,0.784,2.071v3.283
		c0,0.375,0.027,0.73,0.082,1.065c0.053,0.335,0.137,0.67,0.25,1.005H62.508z M60.977,75.61c0.277,0,0.522-0.086,0.74-0.255
		c0.217-0.17,0.364-0.377,0.443-0.618V73.48h-0.908c-0.352,0-0.606,0.113-0.768,0.34c-0.159,0.228-0.24,0.512-0.24,0.859
		c0,0.274,0.068,0.5,0.2,0.672C60.578,75.524,60.756,75.61,60.977,75.61z"/>
	<path fill="#CCCCCC" d="M68.129,73.77v0.023h0.045L69.371,69h2.24l-2.757,9.206c-0.202,0.575-0.475,1.06-0.815,1.446
		c-0.338,0.386-0.858,0.58-1.56,0.58c-0.167,0-0.317-0.014-0.446-0.041c-0.131-0.027-0.315-0.07-0.552-0.129l0.253-1.531
		c0.053,0.009,0.105,0.02,0.159,0.029c0.052,0.009,0.101,0.015,0.149,0.015c0.307,0,0.539-0.085,0.7-0.25
		c0.159-0.167,0.276-0.39,0.352-0.66l0.2-0.612L64.883,69h2.241L68.129,73.77z"/>
</g>
</svg>
