<?xml version="1.0" encoding="utf-8"?>
<!-- Generator: Adobe Illustrator 16.0.0, SVG Export Plug-In . SVG Version: 6.00 Build 0)  -->
<!DOCTYPE svg PUBLIC "-//W3C//DTD SVG 1.1//EN" "http://www.w3.org/Graphics/SVG/1.1/DTD/svg11.dtd">
<svg version="1.1" xmlns="http://www.w3.org/2000/svg" xmlns:xlink="http://www.w3.org/1999/xlink" x="0px" y="0px" width="112px"
	 height="152px" viewBox="0 0 112 152" enable-background="new 0 0 112 152" xml:space="preserve">
<g id="Layer_1" display="none">
	<rect fill="#991A3B" width="96" height="152"/>
	<rect x="48" y="76" fill="#FF0037" width="48" height="76"/>
	<rect x="96" fill="#F7749D" width="16" height="16"/>
	<g>
		<rect x="96" y="16" fill="#F7749D" width="16" height="16"/>
	</g>
</g>
<g id="Layer_2">
	<polygon id="play_2_" fill="#FFFFFF" points="66.75,109 77.75,114 66.75,119 	"/>
	<polygon id="play_1_" fill="#F2F2F2" points="18.375,109 29.375,114 18.375,119 	"/>
	<g id="pause">
		<rect x="19.5" y="33" fill="#F2F2F2" width="3" height="10"/>
		<rect x="25.5" y="33" fill="#F2F2F2" width="3" height="10"/>
	</g>
	<g id="pause_1_">
		<rect x="67.5" y="33" fill="#FFFFFF" width="3" height="10"/>
		<rect x="73.5" y="33" fill="#FFFFFF" width="3" height="10"/>
	</g>
	<g id="handle">
		<g>
			<path fill-rule="evenodd" clip-rule="evenodd" fill="#333333" d="M102,26h1v-4h-1V26z M105,22v4h1v-4H105z"/>
		</g>
	</g>
	<g id="handle_1_">
		<g>
			<path fill-rule="evenodd" clip-rule="evenodd" fill="#555555" d="M102,10h1V6h-1V10z M105,6v4h1V6H105z"/>
		</g>
	</g>
</g>
</svg>
